<?xml version="1.0" encoding="UTF-8" standalone="no"?>
<!DOCTYPE svg PUBLIC "-//W3C//DTD SVG 1.1//EN"
 "http://www.w3.org/Graphics/SVG/1.1/DTD/svg11.dtd">
<!-- Generated by graphviz version 2.40.1 (20161225.0304)
 -->
<!-- Title: graphname Pages: 1 -->
<svg width="1291pt" height="268pt" viewBox="0.00 0.00 1291.15 268.31" xmlns="http://www.w3.org/2000/svg" xmlns:xlink="http://www.w3.org/1999/xlink">
<g id="graph0" class="graph" transform="scale(1 1) rotate(0) translate(4 264.3111)">
<title>graphname</title>
<polygon fill="#ffffff" stroke="transparent" points="-4,4 -4,-264.3111 1287.1484,-264.3111 1287.1484,4 -4,4"></polygon>
<!-- 表现手法 -->
<g id="node1" class="node">
<title>表现手法</title>
<polygon fill="none" stroke="#000000" points="854.8619,-260.3111 783.4349,-260.3111 783.4349,-224.3111 854.8619,-224.3111 854.8619,-260.3111"></polygon>
<text text-anchor="middle" x="819.1484" y="-238.1111" font-family="Times,serif" font-size="14.00" fill="#000000">表现手法</text>
</g>
<!-- 表达技巧 -->
<g id="node2" class="node">
<title>表达技巧</title>
<polygon fill="none" stroke="#000000" points="398.8135,-188.3111 321.4833,-188.3111 321.4833,-152.3111 398.8135,-152.3111 398.8135,-188.3111"></polygon>
<text text-anchor="middle" x="360.1484" y="-166.1111" font-family="Times,serif" font-size="14.00" fill="#000000">表达技巧</text>
</g>
<!-- 表现手法&#45;&#45;表达技巧 -->
<g id="edge1" class="edge">
<title>表现手法&#45;&#45;表达技巧</title>
<path fill="none" stroke="#000000" d="M783.5134,-236.7213C698.9442,-223.4556 486.6668,-190.1571 398.9783,-176.4021"></path>
</g>
<!-- 修辞手法 -->
<g id="node3" class="node">
<title>修辞手法</title>
<polygon fill="none" stroke="#000000" points="855.6995,-188.3111 782.5972,-188.3111 782.5972,-152.3111 855.6995,-152.3111 855.6995,-188.3111"></polygon>
<text text-anchor="middle" x="819.1484" y="-166.1111" font-family="Times,serif" font-size="14.00" fill="#000000">修辞手法</text>
</g>
<!-- 表现手法&#45;&#45;修辞手法 -->
<g id="edge2" class="edge">
<title>表现手法&#45;&#45;修辞手法</title>
<path fill="none" stroke="#000000" d="M819.1484,-224.1425C819.1484,-213.3111 819.1484,-199.5987 819.1484,-188.7244"></path>
</g>
<!-- 表达方式 -->
<g id="node4" class="node">
<title>表达方式</title>
<polygon fill="none" stroke="#000000" points="1167.1288,-188.3111 1081.168,-188.3111 1081.168,-152.3111 1167.1288,-152.3111 1167.1288,-188.3111"></polygon>
<text text-anchor="middle" x="1124.1484" y="-166.1111" font-family="Times,serif" font-size="14.00" fill="#000000">表达方式</text>
</g>
<!-- 表现手法&#45;&#45;表达方式 -->
<g id="edge3" class="edge">
<title>表现手法&#45;&#45;表达方式</title>
<path fill="none" stroke="#000000" d="M855.0326,-233.8401C911.4066,-220.5321 1020.5177,-194.7748 1081.0546,-180.4841"></path>
</g>
<!-- 象征 -->
<g id="node5" class="node">
<title>象征</title>
<polygon fill="none" stroke="#000000" points="122.4455,-71.921 75.6187,-71.921 61.1484,-116.4671 46.6781,-71.921 -.1487,-71.921 37.735,-44.3901 23.2647,.156 61.1484,-27.375 99.0321,.156 84.5618,-44.3901 122.4455,-71.921"></polygon>
<text text-anchor="middle" x="61.1484" y="-53.9556" font-family="Times,serif" font-size="14.00" fill="#000000">象征</text>
</g>
<!-- 表达技巧&#45;&#45;象征 -->
<g id="edge4" class="edge">
<title>表达技巧&#45;&#45;象征</title>
<path fill="none" stroke="#000000" d="M321.2291,-166.505C274.3363,-160.7265 194.1312,-146.9754 132.1484,-116.3111 110.0122,-105.3599 88.6535,-86.3505 75.2457,-73.0555"></path>
</g>
<!-- 欲扬先抑 -->
<g id="node6" class="node">
<title>欲扬先抑</title>
<polygon fill="none" stroke="#000000" points="249.4786,-63.7179 195.1484,-76.1556 140.8181,-63.7179 140.8689,-43.5933 249.4279,-43.5933 249.4786,-63.7179"></polygon>
<text text-anchor="middle" x="195.1484" y="-53.9556" font-family="Times,serif" font-size="14.00" fill="#000000">欲扬先抑</text>
</g>
<!-- 表达技巧&#45;&#45;欲扬先抑 -->
<g id="edge5" class="edge">
<title>表达技巧&#45;&#45;欲扬先抑</title>
<path fill="none" stroke="#000000" d="M321.429,-152.4271C302.0577,-142.7884 278.6466,-130.0636 259.1484,-116.3111 240.7456,-103.3313 221.9359,-85.5961 209.5143,-73.1344"></path>
</g>
<!-- 对比 -->
<g id="node7" class="node">
<title>对比</title>
<polygon fill="none" stroke="#000000" points="350.4774,-63.7179 309.1484,-76.1556 267.8193,-63.7179 267.8579,-43.5933 350.4388,-43.5933 350.4774,-63.7179"></polygon>
<text text-anchor="middle" x="309.1484" y="-53.9556" font-family="Times,serif" font-size="14.00" fill="#000000">对比</text>
</g>
<!-- 表达技巧&#45;&#45;对比 -->
<g id="edge6" class="edge">
<title>表达技巧&#45;&#45;对比</title>
<path fill="none" stroke="#000000" d="M351.9543,-152.2914C342.1556,-130.7427 325.9017,-94.9984 316.4945,-74.3105"></path>
</g>
<!-- 渲染烘托 -->
<g id="node8" class="node">
<title>渲染烘托</title>
<ellipse fill="none" stroke="#000000" cx="411.1484" cy="-58.1556" rx="43.4454" ry="18"></ellipse>
<text text-anchor="middle" x="411.1484" y="-53.9556" font-family="Times,serif" font-size="14.00" fill="#000000">渲染烘托</text>
</g>
<!-- 表达技巧&#45;&#45;渲染烘托 -->
<g id="edge7" class="edge">
<title>表达技巧&#45;&#45;渲染烘托</title>
<path fill="none" stroke="#000000" d="M368.3424,-152.2914C377.8596,-131.3619 393.4662,-97.0409 402.9747,-76.1306"></path>
</g>
<!-- 联想想象 -->
<g id="node9" class="node">
<title>联想想象</title>
<ellipse fill="none" stroke="#000000" cx="527.1484" cy="-58.1556" rx="55.042" ry="18"></ellipse>
<text text-anchor="middle" x="527.1484" y="-53.9556" font-family="Times,serif" font-size="14.00" fill="#000000">联想想象</text>
</g>
<!-- 表达技巧&#45;&#45;联想想象 -->
<g id="edge8" class="edge">
<title>表达技巧&#45;&#45;联想想象</title>
<path fill="none" stroke="#000000" d="M399.1657,-152.7784C419.0218,-143.1406 443.1273,-130.3112 463.1484,-116.3111 480.4963,-104.1803 498.1495,-87.7703 510.5089,-75.4748"></path>
</g>
<!-- 比喻 -->
<g id="node10" class="node">
<title>比喻</title>
<polygon fill="none" stroke="#000000" points="676.5141,-63.7179 638.1484,-76.1556 599.7827,-63.7179 599.8185,-43.5933 676.4783,-43.5933 676.5141,-63.7179"></polygon>
<text text-anchor="middle" x="638.1484" y="-53.9556" font-family="Times,serif" font-size="14.00" fill="#000000">比喻</text>
</g>
<!-- 修辞手法&#45;&#45;比喻 -->
<g id="edge9" class="edge">
<title>修辞手法&#45;&#45;比喻</title>
<path fill="none" stroke="#000000" d="M782.4925,-161.0345C754.0293,-152.5949 714.5844,-138.0943 685.1484,-116.3111 669.2872,-104.5735 655.6918,-86.2722 647.2633,-73.3396"></path>
</g>
<!-- 拟人 -->
<g id="node11" class="node">
<title>拟人</title>
<polygon fill="none" stroke="#000000" points="766.501,-63.7179 730.1484,-76.1556 693.7958,-63.7179 693.8297,-43.5933 766.467,-43.5933 766.501,-63.7179"></polygon>
<text text-anchor="middle" x="730.1484" y="-53.9556" font-family="Times,serif" font-size="14.00" fill="#000000">拟人</text>
</g>
<!-- 修辞手法&#45;&#45;拟人 -->
<g id="edge10" class="edge">
<title>修辞手法&#45;&#45;拟人</title>
<path fill="none" stroke="#000000" d="M803.9634,-151.9097C795.431,-141.5116 784.624,-128.2438 775.1484,-116.3111 763.3988,-101.515 750.1944,-84.3896 741.1444,-72.5735"></path>
</g>
<!-- 排比 -->
<g id="node12" class="node">
<title>排比</title>
<polygon fill="none" stroke="#000000" points="854.546,-63.7179 819.1484,-76.1556 783.7507,-63.7179 783.7838,-43.5933 854.513,-43.5933 854.546,-63.7179"></polygon>
<text text-anchor="middle" x="819.1484" y="-53.9556" font-family="Times,serif" font-size="14.00" fill="#000000">排比</text>
</g>
<!-- 修辞手法&#45;&#45;排比 -->
<g id="edge11" class="edge">
<title>修辞手法&#45;&#45;排比</title>
<path fill="none" stroke="#000000" d="M819.1484,-152.2914C819.1484,-131.4858 819.1484,-97.4466 819.1484,-76.5032"></path>
</g>
<!-- 反问 -->
<g id="node13" class="node">
<title>反问</title>
<ellipse fill="none" stroke="#000000" cx="905.1484" cy="-58.1556" rx="33.0662" ry="18"></ellipse>
<text text-anchor="middle" x="905.1484" y="-53.9556" font-family="Times,serif" font-size="14.00" fill="#000000">反问</text>
</g>
<!-- 修辞手法&#45;&#45;反问 -->
<g id="edge12" class="edge">
<title>修辞手法&#45;&#45;反问</title>
<path fill="none" stroke="#000000" d="M834.4871,-152.0297C843.0675,-141.6691 853.8714,-128.3988 863.1484,-116.3111 873.6123,-102.6769 884.9995,-86.8427 893.2739,-75.1424"></path>
</g>
<!-- 设问 -->
<g id="node14" class="node">
<title>设问</title>
<ellipse fill="none" stroke="#000000" cx="996.1484" cy="-58.1556" rx="39.4447" ry="18"></ellipse>
<text text-anchor="middle" x="996.1484" y="-53.9556" font-family="Times,serif" font-size="14.00" fill="#000000">设问</text>
</g>
<!-- 修辞手法&#45;&#45;设问 -->
<g id="edge13" class="edge">
<title>修辞手法&#45;&#45;设问</title>
<path fill="none" stroke="#000000" d="M855.7188,-159.9928C882.6947,-151.2199 919.38,-136.7677 947.1484,-116.3111 962.3486,-105.1133 975.8567,-88.2794 984.8201,-75.6001"></path>
</g>
<!-- 描写 -->
<g id="node15" class="node">
<title>描写</title>
<ellipse fill="none" stroke="#000000" cx="1080.1484" cy="-58.1556" rx="27" ry="18"></ellipse>
<text text-anchor="middle" x="1080.1484" y="-53.9556" font-family="Times,serif" font-size="14.00" fill="#000000">描写</text>
</g>
<!-- 表达方式&#45;&#45;描写 -->
<g id="edge14" class="edge">
<title>表达方式&#45;&#45;描写</title>
<path fill="none" stroke="#000000" d="M1117.079,-152.2914C1108.8195,-131.2381 1095.244,-96.6343 1087.0551,-75.7608"></path>
</g>
<!-- 议论 -->
<g id="node16" class="node">
<title>议论</title>
<ellipse fill="none" stroke="#000000" cx="1168.1484" cy="-58.1556" rx="43.4551" ry="18"></ellipse>
<text text-anchor="middle" x="1168.1484" y="-53.9556" font-family="Times,serif" font-size="14.00" fill="#000000">议论</text>
</g>
<!-- 表达方式&#45;&#45;议论 -->
<g id="edge15" class="edge">
<title>表达方式&#45;&#45;议论</title>
<path fill="none" stroke="#000000" d="M1131.2177,-152.2914C1139.4286,-131.3619 1152.8932,-97.0409 1161.0966,-76.1306"></path>
</g>
<!-- 抒情 -->
<g id="node17" class="node">
<title>抒情</title>
<ellipse fill="none" stroke="#000000" cx="1256.1484" cy="-58.1556" rx="27" ry="18"></ellipse>
<text text-anchor="middle" x="1256.1484" y="-53.9556" font-family="Times,serif" font-size="14.00" fill="#000000">抒情</text>
</g>
<!-- 表达方式&#45;&#45;抒情 -->
<g id="edge16" class="edge">
<title>表达方式&#45;&#45;抒情</title>
<path fill="none" stroke="#000000" d="M1166.9098,-152.1034C1184.7452,-143.1057 1204.8282,-131.0024 1220.1484,-116.3111 1232.3185,-104.6406 1242.0638,-88.0238 1248.3299,-75.5389"></path>
</g>
</g>
</svg>
