<?xml version="1.0" encoding="UTF-8" standalone="no"?>
<!DOCTYPE svg PUBLIC "-//W3C//DTD SVG 1.1//EN"
 "http://www.w3.org/Graphics/SVG/1.1/DTD/svg11.dtd">
<!-- Generated by graphviz version 2.40.1 (20161225.0304)
 -->
<!-- Title: graphname Pages: 1 -->
<svg width="1124pt" height="260pt" viewBox="0.00 0.00 1124.39 260.00" xmlns="http://www.w3.org/2000/svg" xmlns:xlink="http://www.w3.org/1999/xlink">
<g id="graph0" class="graph" transform="scale(1 1) rotate(0) translate(4 256)">
<title>graphname</title>
<polygon fill="#ffffff" stroke="transparent" points="-4,4 -4,-256 1120.3867,-256 1120.3867,4 -4,4"></polygon>
<!-- 屈原 -->
<g id="node1" class="node">
<title>屈原</title>
<ellipse fill="none" stroke="#000000" cx="765.2644" cy="-234" rx="27.8725" ry="18"></ellipse>
<text text-anchor="middle" x="765.2644" y="-229.8" font-family="Times,serif" font-size="14.00" fill="#000000">屈原</text>
</g>
<!-- 君子 -->
<g id="node2" class="node">
<title>君子</title>
<ellipse fill="none" stroke="#000000" cx="706.2644" cy="-162" rx="27" ry="18"></ellipse>
<text text-anchor="middle" x="706.2644" y="-157.8" font-family="Times,serif" font-size="14.00" fill="#000000">君子</text>
</g>
<!-- 屈原&#45;&#45;君子 -->
<g id="edge1" class="edge">
<title>屈原&#45;&#45;君子</title>
<path fill="none" stroke="#000000" d="M752.1704,-218.0209C742.3931,-206.0892 729.0903,-189.8553 719.3219,-177.9345"></path>
</g>
<!-- 小人 -->
<g id="node3" class="node">
<title>小人</title>
<ellipse fill="none" stroke="#000000" cx="850.2644" cy="-162" rx="29.0356" ry="18"></ellipse>
<text text-anchor="middle" x="850.2644" y="-157.8" font-family="Times,serif" font-size="14.00" fill="#000000">小人</text>
</g>
<!-- 屈原&#45;&#45;小人 -->
<g id="edge2" class="edge">
<title>屈原&#45;&#45;小人</title>
<path fill="none" stroke="#000000" d="M782.4655,-219.4297C797.1156,-207.0202 818.0714,-189.2694 832.7973,-176.7957"></path>
</g>
<!-- 君子特征 -->
<g id="node4" class="node">
<title>君子特征</title>
<ellipse fill="none" stroke="#000000" cx="395.2644" cy="-90" rx="42.8615" ry="18"></ellipse>
<text text-anchor="middle" x="395.2644" y="-85.8" font-family="Times,serif" font-size="14.00" fill="#000000">君子特征</text>
</g>
<!-- 君子&#45;&#45;君子特征 -->
<g id="edge3" class="edge">
<title>君子&#45;&#45;君子特征</title>
<path fill="none" stroke="#000000" d="M680.5494,-156.0467C625.6844,-143.3448 496.9411,-113.5393 432.8636,-98.7046"></path>
</g>
<!-- 君子象征物 -->
<g id="node5" class="node">
<title>君子象征物</title>
<ellipse fill="none" stroke="#000000" cx="706.2644" cy="-90" rx="54.1474" ry="18"></ellipse>
<text text-anchor="middle" x="706.2644" y="-85.8" font-family="Times,serif" font-size="14.00" fill="#000000">君子象征物</text>
</g>
<!-- 君子&#45;&#45;君子象征物 -->
<g id="edge4" class="edge">
<title>君子&#45;&#45;君子象征物</title>
<path fill="none" stroke="#000000" d="M706.2644,-143.8314C706.2644,-133 706.2644,-119.2876 706.2644,-108.4133"></path>
</g>
<!-- 小人特征 -->
<g id="node6" class="node">
<title>小人特征</title>
<ellipse fill="none" stroke="#000000" cx="850.2644" cy="-90" rx="45.7499" ry="18"></ellipse>
<text text-anchor="middle" x="850.2644" y="-85.8" font-family="Times,serif" font-size="14.00" fill="#000000">小人特征</text>
</g>
<!-- 小人&#45;&#45;小人特征 -->
<g id="edge5" class="edge">
<title>小人&#45;&#45;小人特征</title>
<path fill="none" stroke="#000000" d="M850.2644,-143.8314C850.2644,-133 850.2644,-119.2876 850.2644,-108.4133"></path>
</g>
<!-- 小人象征物 -->
<g id="node7" class="node">
<title>小人象征物</title>
<ellipse fill="none" stroke="#000000" cx="991.2644" cy="-90" rx="57.0361" ry="18"></ellipse>
<text text-anchor="middle" x="991.2644" y="-85.8" font-family="Times,serif" font-size="14.00" fill="#000000">小人象征物</text>
</g>
<!-- 小人&#45;&#45;小人象征物 -->
<g id="edge6" class="edge">
<title>小人&#45;&#45;小人象征物</title>
<path fill="none" stroke="#000000" d="M872.9185,-150.432C896.8174,-138.2283 934.6054,-118.9323 961.034,-105.4368"></path>
</g>
<!-- 品行高洁 -->
<g id="node8" class="node">
<title>品行高洁</title>
<ellipse fill="none" stroke="#000000" cx="51.2644" cy="-18" rx="51.03" ry="18"></ellipse>
<text text-anchor="middle" x="51.2644" y="-13.8" font-family="Times,serif" font-size="14.00" fill="#000000">品行高洁</text>
</g>
<!-- 君子特征&#45;&#45;品行高洁 -->
<g id="edge7" class="edge">
<title>君子特征&#45;&#45;品行高洁</title>
<path fill="none" stroke="#000000" d="M355.0053,-83.6953C299.7085,-74.7295 197.3157,-57.0288 111.2644,-36 104.1863,-34.2703 96.7033,-32.213 89.5122,-30.1181"></path>
</g>
<!-- 遭到小人排挤，有才能不得施展 -->
<g id="node9" class="node">
<title>遭到小人排挤，有才能不得施展</title>
<ellipse fill="none" stroke="#000000" cx="269.2644" cy="-18" rx="149.3255" ry="18"></ellipse>
<text text-anchor="middle" x="269.2644" y="-13.8" font-family="Times,serif" font-size="14.00" fill="#000000">遭到小人排挤，有才能不得施展</text>
</g>
<!-- 君子特征&#45;&#45;遭到小人排挤，有才能不得施展 -->
<g id="edge8" class="edge">
<title>君子特征&#45;&#45;遭到小人排挤，有才能不得施展</title>
<path fill="none" stroke="#000000" d="M369.7665,-75.4297C349.7757,-64.0064 321.8641,-48.057 300.5268,-35.8642"></path>
</g>
<!-- 痛苦、伤心、失望 -->
<g id="node10" class="node">
<title>痛苦、伤心、失望</title>
<ellipse fill="none" stroke="#000000" cx="521.2644" cy="-18" rx="85.105" ry="18"></ellipse>
<text text-anchor="middle" x="521.2644" y="-13.8" font-family="Times,serif" font-size="14.00" fill="#000000">痛苦、伤心、失望</text>
</g>
<!-- 君子特征&#45;&#45;痛苦、伤心、失望 -->
<g id="edge9" class="edge">
<title>君子特征&#45;&#45;痛苦、伤心、失望</title>
<path fill="none" stroke="#000000" d="M420.7624,-75.4297C441.1847,-63.7599 469.8733,-47.3664 491.3743,-35.0801"></path>
</g>
<!-- 香草 -->
<g id="node11" class="node">
<title>香草</title>
<ellipse fill="none" stroke="#000000" cx="660.2644" cy="-18" rx="35.9569" ry="18"></ellipse>
<text text-anchor="middle" x="660.2644" y="-13.8" font-family="Times,serif" font-size="14.00" fill="#000000">香草</text>
</g>
<!-- 君子象征物&#45;&#45;香草 -->
<g id="edge10" class="edge">
<title>君子象征物&#45;&#45;香草</title>
<path fill="none" stroke="#000000" d="M694.8937,-72.2022C687.7102,-60.9586 678.473,-46.5003 671.3457,-35.3446"></path>
</g>
<!-- 美人 -->
<g id="node12" class="node">
<title>美人</title>
<ellipse fill="none" stroke="#000000" cx="743.2644" cy="-18" rx="29.0356" ry="18"></ellipse>
<text text-anchor="middle" x="743.2644" y="-13.8" font-family="Times,serif" font-size="14.00" fill="#000000">美人</text>
</g>
<!-- 君子象征物&#45;&#45;美人 -->
<g id="edge11" class="edge">
<title>君子象征物&#45;&#45;美人</title>
<path fill="none" stroke="#000000" d="M715.4105,-72.2022C721.1885,-60.9586 728.6184,-46.5003 734.3513,-35.3446"></path>
</g>
<!-- 排挤君子 -->
<g id="node13" class="node">
<title>排挤君子</title>
<ellipse fill="none" stroke="#000000" cx="830.2644" cy="-18" rx="40.0108" ry="18"></ellipse>
<text text-anchor="middle" x="830.2644" y="-13.8" font-family="Times,serif" font-size="14.00" fill="#000000">排挤君子</text>
</g>
<!-- 小人特征&#45;&#45;排挤君子 -->
<g id="edge12" class="edge">
<title>小人特征&#45;&#45;排挤君子</title>
<path fill="none" stroke="#000000" d="M845.2176,-71.8314C842.1626,-60.8334 838.2825,-46.865 835.2404,-35.9134"></path>
</g>
<!-- 得势 -->
<g id="node14" class="node">
<title>得势</title>
<ellipse fill="none" stroke="#000000" cx="915.2644" cy="-18" rx="27.2892" ry="18"></ellipse>
<text text-anchor="middle" x="915.2644" y="-13.8" font-family="Times,serif" font-size="14.00" fill="#000000">得势</text>
</g>
<!-- 小人特征&#45;&#45;得势 -->
<g id="edge13" class="edge">
<title>小人特征&#45;&#45;得势</title>
<path fill="none" stroke="#000000" d="M865.6685,-72.937C876.3304,-61.1269 890.4238,-45.5158 900.8615,-33.954"></path>
</g>
<!-- 恶草 -->
<g id="node15" class="node">
<title>恶草</title>
<ellipse fill="none" stroke="#000000" cx="991.2644" cy="-18" rx="30.9331" ry="18"></ellipse>
<text text-anchor="middle" x="991.2644" y="-13.8" font-family="Times,serif" font-size="14.00" fill="#000000">恶草</text>
</g>
<!-- 小人象征物&#45;&#45;恶草 -->
<g id="edge14" class="edge">
<title>小人象征物&#45;&#45;恶草</title>
<path fill="none" stroke="#000000" d="M991.2644,-71.8314C991.2644,-61 991.2644,-47.2876 991.2644,-36.4133"></path>
</g>
<!-- 众鸟 -->
<g id="node16" class="node">
<title>众鸟</title>
<ellipse fill="none" stroke="#000000" cx="1078.2644" cy="-18" rx="38.245" ry="18"></ellipse>
<text text-anchor="middle" x="1078.2644" y="-13.8" font-family="Times,serif" font-size="14.00" fill="#000000">众鸟</text>
</g>
<!-- 小人象征物&#45;&#45;众鸟 -->
<g id="edge15" class="edge">
<title>小人象征物&#45;&#45;众鸟</title>
<path fill="none" stroke="#000000" d="M1011.8822,-72.937C1026.2532,-61.0438 1045.2822,-45.2957 1059.2811,-33.7103"></path>
</g>
</g>
</svg>
