<svg version="1" xmlns="http://www.w3.org/2000/svg" width="1066.667" height="1066.667" viewBox="0 0 800.000000 800.000000"><path d="M374.5 11c-1.1.5-3.8.9-5.9.9-2.2.1-4.4.7-5 1.6-1.2 1.7-3.2 1.8-12.3 1.1-3.5-.3-6.3-.2-6.3.2 0 1.5-7.3.5-8.2-1.2-1.3-2.3-4.8-2.1-4.8.3 0 2.2-1.6 3.7-2.2 2-.3-.8-2.5-.8-8.2.1-11.9 1.8-13 2-13.7 3.1-.3.6-1.6 1.1-2.8 1.2-1.9.1-2.2.6-1.9 2.9.3 1.5.1 2.8-.4 2.8-.4 0-.8-.5-.8-1.1 0-.6-.7-.8-1.6-.5-.8.3-2.2-.1-3.1-1-.9-.8-2.3-1.2-3.2-.9-.9.3-3.7 1.1-6.3 1.6-2.7.6-4.8 1.5-4.8 2 0 .4-1.3.6-2.9.3-2-.4-3-.1-3.4 1-.4 1.1-1.6 1.5-3.6 1.2-2.3-.2-3.1.1-3.5 1.7-.3 1.4-1.1 1.8-2.5 1.4-1.4-.3-2.1 0-2.1 1 0 .9-.6 1.3-1.5 1-.8-.4-1.7-.2-2 .3-.4.6-1.4 1-2.4 1s-2.1.9-2.4 2c-.3 1.4-1.4 2-3.1 2-1.4 0-2.6.4-2.6.9s-1.3 1.1-3 1.4c-2.1.5-3 1.2-3 2.5 0 1.4-.9 2.1-3 2.5-1.9.4-3 1.3-3 2.3 0 .9-.9 1.8-2 2.1-1.1.3-2 .9-2 1.4 0 .5-.6.9-1.3.9-.7 0-2 .8-2.9 1.7-.9 1-2.3 2.4-3 3-.7.7-2.9 2.8-4.8 4.8-1.9 1.9-4.1 3.5-4.8 3.5-.7 0-1.6.8-1.9 1.7-.9 2.3-7.3 11.6-8.6 12.4-.5.4-.7 1.4-.4 2.2.6 1.6-2.1 4.7-4.1 4.7-.7 0-1.2.7-1.2 1.5s-.4 1.5-1 1.5c-.5 0-1 1.1-1 2.3 0 1.3-1.3 3.5-2.9 4.9-1.6 1.5-3.4 4.2-4.1 6.2-.6 2-1.6 3.6-2.1 3.6s-1.4 1-1.9 2.2c-.6 1.3-1.9 3.8-3.1 5.7-1.1 1.8-1.8 3.6-1.5 3.8.3.3-.1 1.7-.8 3.2-.7 1.4-1.8 5-2.5 7.9-.7 2.9-3.1 8.5-5.3 12.5-2.2 4-4.2 8.7-4.3 10.5-.1 1.8-.5 3.6-.9 3.9-.3.3-.1 1.1.4 1.8.7.8.1 2.2-2 4.6-1.6 1.9-3.3 3.9-3.8 4.5-1.9 2.2-5.6 17-4.6 18.5.3.6-.1 1.8-.8 2.7-2.3 2.7-7.8 17.4-7.8 20.8 0 1.6-.7 3.9-1.5 5-.8 1-1.5 3.3-1.5 5.1 0 1.7-.5 4.4-1.1 6-.6 1.5-1.3 5.9-1.6 9.7-.3 3.9-1.2 8.2-2.3 10-1.7 3.1-1.7 3.4 0 7.1 1 2.1 1.6 4.5 1.3 5.2-.3.7 0 1.3.7 1.3 1 0 1.1 1.3.5 5.2-.4 2.9-.7 7.5-.6 10.3.2 6.4-3.3 27.1-4.9 29-.7.8-.9 1.5-.5 1.5s.2.7-.5 1.5c-1.1 1.3-1 2 0 4.1 1.2 2.1 1.2 3.4-.1 8.2-1.5 5.8-1.3 9.5 1.2 18.1 1.1 4.1 1.1 4.5-1.2 6.3-1.3 1.1-3.7 2.6-5.4 3.3-4 1.9-5.3 3.1-9.9 8.8-3.6 4.4-3.9 5.4-4.4 12.1-.8 12.2 1.6 29 6 42.1.6 1.6 1.4 4.6 1.8 6.5.5 1.9 2.3 8.4 4 14.5 1.7 6 3.5 12.6 3.9 14.6.4 1.9 1.5 5 2.4 6.9.9 1.8 1.7 3.8 1.7 4.3 0 1.2 4.1 10 5 10.7.3.3 1.7 2.3 3 4.5s2.7 4.2 3 4.5c.4.3 1.1 1.4 1.7 2.5.9 2 .9 2.6-.3 10.2-.4 2.9-.2 5.5.9 8.1 1.1 2.7 1.8 9 2.2 19.8.3 8.7 1 18.6 1.4 21.9.5 3.3.7 6.3.5 6.7-.2.3.1 1.9.6 3.3.6 1.5 1.3 4.6 1.6 6.9.2 2.2.9 5.4 1.4 7.1.5 1.6 1.4 5 2 7.5 1.7 7 6.9 23 9.1 27.7 1 2.4 1.9 4.7 1.9 5.3 0 .6.5 1.9 1 3 .6 1.1 1.5 2.9 2 4 .6 1.1 1 2.6 1 3.4 0 .7.7 1.9 1.5 2.6.8.7 1.5 2.6 1.5 4.2s.6 3.1 1.4 3.4c.8.3 1.2 1.2.9 2-.3.8.3 2.2 1.4 3.2 2.7 2.4 3.6 5.2 2.1 7-1.1 1.3-1 1.5.3 1 2.1-.8 6 2.7 5.3 4.7-.4.9 0 1.5 1 1.5.9 0 1.6.8 1.6 2 0 1.1.5 2 1.1 2 .6 0 .8.9.4 2s-.2 2 .4 2c.6 0 1.1 1.3 1.1 2.8 0 3.6.9 4.5 2.8 2.9 1.1-.8 1.4-.8.9 0-.4.6 0 1.8.8 2.6 1.6 1.6 2.1 4.7.7 4.7-.4 0-1.3-.5-2-1.2-.9-.9-1.2-.8-1.2.5 0 .9.6 1.7 1.4 1.7.8 0 1.7.7 2 1.6.9 2.4.7 2.7-1 1.4-1.2-1.1-1.8-1-3.2.4-1.5 1.5-1.5 1.8-.2 2.6 1.2.8 1.3 1.1.1 1.9-.9.6-1 1.1-.2 1.5 1.9 1.2 1.2 2.6-1.4 2.6-2.5 0-3.5 2.3-1.4 3.5 1.7 1.1-3.3 5.1-5.8 4.7-2.7-.5-3.1-2.2-.5-2.2 1.4 0 1.9-.8 1.9-3.3 0-1.7-.6-4.1-1.3-5.2-1.3-1.8-1.4-1.6-1.4 2 0 5.2-1.1 6.7-4.5 6.3-1.6-.2-3 .2-3.2.9-.3.9.7 1.3 3.1 1.3 3.3 0 3.6.2 3.6 3 0 3.2-2.6 4.3-3.6 1.5-.4-.9-1.9-1.5-4-1.5-2 0-3.7-.6-4.2-1.6-.7-1.2-1.1-1.3-1.6-.5-1.3 2.1 1.3 4.1 4.7 3.5 2.2-.4 2.8-.3 1.8.4-.7.5-1.1 1.5-.7 2.1.5.7-.2.9-2.1.5-5.8-1.1-6.6-1-7.3 1.6-.4 1.6-.8 2.1-1.3 1.3-.4-.7-1.4-1-2.2-.6-1.8.6-2.1-3.2-.4-4.3.8-.4.7-.9-.2-1.5-2.4-1.5-4.6-1-5.2 1.1-.7 2.6 1.4 7 3.3 7 2.1 0 0 1.7-3 2.5-2.1.5-2.7.1-3.9-2.5-1.1-2.6-1.8-3.1-3.7-2.6-1.9.5-2.4.2-2.4-1.3 0-2.1 5.2-4.1 5.8-2.2.6 1.8 2.2 1.2 2.2-.7 0-1.4-.8-1.9-3.5-2-1.9-.1-3.7.3-4 .8-.3.5-1.2.7-2 .3-1.7-.6-2.1 1.2-.5 2.2 1.6 1 1.2 5.2-.6 5.9-2.8 1.1-5.4.6-5.4-.8 0-2.4-2-2.9-3.9-1.2-1.7 1.6-1.9 1.4-2.5-2.4-.4-2.4-1.2-4-2-4-.9 0-1.2.8-.9 2.4.6 2.7-1.3 4.4-3 2.7-.9-.9-.8-1.6.1-3.1 1.6-2.6 1.5-2.7-.7-3.3-1.1-.2-2.1-1.5-2.4-2.8-.3-1.9-.5-1.8-.6.8 0 1.7.4 3.3 1.1 3.5.9.3.9.6 0 1.2-.7.4-1.2.2-1.2-.4 0-.8-.6-.8-2 0-3.1 1.6-2.5 4.9 1.1 6.4 2.2.9 2.7 1.5 1.6 1.9-.8.3-2.8-.7-4.7-2.4-2.9-2.7-3.1-3.1-1.6-4.2 1.9-1.4 1.2-4.7-1-4.7-.8 0-1.4-.5-1.4-1.1 0-.7-.9-.9-2.4-.5-2.9.7-4.7-1.2-4.1-4.3.5-2.7-.4-5.3-1.6-4.5-.5.3-1.2-.3-1.6-1.3-1.3-3.5-6.3-4.7-6.3-1.6-.1 1.7-.1 1.7-1.4 0-1.7-2.2-4.9-1.2-4.1 1.3.9 2.9-1.4 3.4-4.7 1-1.7-1.2-3.8-2-4.9-1.7-1.2.3-1.9 0-1.9-1 0-.8.5-1.1 1.1-.7.8.4.9-.1.4-1.7-1-3.1-1.3-4.6-.8-3.7.3.5 1.3.8 2.4.8 1.4 0 2.1.9 2.6 3 .3 1.6 1.2 3 2 3 1 0 1.1-.5.4-1.9-.8-1.4-.5-2.3 1-4 1.1-1.1 1.7-2.1 1.3-2.1-.3 0-.1-.7.6-1.5s2.1-1.5 3.1-1.5c2.3 0 2.4-1.3.4-3-1-.9-1.5-.9-1.5-.1 0 .6-.8 1.1-1.9 1.1-1.3 0-2 .9-2.4 3-.5 2.1-1.2 3-2.7 3-1.1 0-2-.4-2-1 0-2.2-3.8-3-7-1.4-1.7.9-3.4 1.3-3.7 1-.4-.3-.2-.6.4-.6.6 0 1-1.7 1-3.9 0-3.5-.2-3.8-2.8-3.9-1.9 0-3.5.8-4.7 2.3l-1.9 2.4-1.3-2.4c-.9-1.8-2.2-2.5-4.2-2.5-2.3 0-2.8-.4-2.8-2.6 0-1.4-.4-2.3-.9-2-.5.4-1.2 0-1.4-.6-.3-.8-.6-.6-.6.4-.1 1.3-.9 1.7-3 1.5-2.7-.2-2.9-.5-2.8-3.4.2-3.5 2.7-4.7 2.7-1.3 0 1.1.3 2 .8 2 1.5-.1 4.2-2.8 4.2-4.4 0-.9.5-1.6 1-1.6.6 0 1 .9 1 2s.7 2 1.5 2c1.1 0 1.5-1.1 1.5-4 0-3.3-.3-4-2-4-1.1 0-2 .6-2 1.2 0 2.4-1.9-1.6-2.5-5.4l-.7-3.7-2.6 2.6c-1.5 1.5-2.5 3.5-2.4 4.5.3 1.9-.5 2.3-2.6 1-.7-.5-1-1.6-.6-2.5.4-1.2.1-1.7-1-1.7-.9 0-1.6-.8-1.6-2 0-2.3 1-2.6 2.8-.8.7.7 1.2.8 1.2.3 0-.6-1.4-1.9-3-3-1.8-1.2-3-2.9-3-4.3 0-1.2-.5-2.2-1.1-2.2-.6 0-.9 1-.8 2.2.1 1.3-.1 3-.4 3.8-.3.8-.7 2.4-.9 3.4-.2 1.2-1.3 2.1-2.9 2.3-2.3.3-2.5.1-2.1-3.1.2-1.8-.1-4.4-.8-5.6-.9-1.7-.9-2.4 0-3 1.6-1-3.2-4-6.5-4-1.6 0-2.5-.6-2.5-1.5 0-.8.5-1.5 1-1.5.6 0 1-1.4 1-3 0-1.7-.4-3-1-3-.5 0-1 .6-1 1.4 0 2-1.6 2.9-4 2.1-2.7-.9-2.5-2.3.5-3.7 3-1.4 3.1-1.9.4-3.6-1.9-1.2-2-1.1-1.4.7.4 1.5.2 2.1-.8 2.1-.8 0-1.7 1.3-2.1 3.1-.8 3.9-2.7 2.8-2.3-1.4.2-2.6-.2-3.3-2.1-3.5-1.3-.2-2.2.2-2.2 1 0 .7-1.2-.2-2.6-1.9-1.4-1.8-3-3.3-3.5-3.3-1.6 0-4.9-3.4-4.9-5.1 0-.9.7-1.9 1.5-2.3 2-.7 1.9-3.3-.2-5.4-1.2-1.2-1.8-1.3-2.1-.4-.8 2.6-2.2 1-2.2-2.8 0-2.2-.4-4-1-4-1.5 0-1.3 11.7.3 12.3.9.4.9.6 0 .6C.3 598 0 618.8 0 698.5V799h265.3c258.3 0 265.4-.1 267.1-1.9.9-1 2-3.5 2.3-5.6.4-2.5.9-3.2 1.4-2.3.6.9.9.5.9-1.3 0-1.7.9-3.3 2.6-4.3 1.4-1 2.4-2.5 2.3-3.4-.3-2.6 1.2-7.3 2.2-6.6 1 .6 1.1.3 1.4-4.8.1-2.4 1.1-4.4 2.8-6 1.8-1.7 2.3-2.8 1.6-4-.6-1.1-.4-2 .6-2.8.8-.7 1.5-2.1 1.5-3.1 0-1.1.6-1.9 1.3-1.9.7 0 1.7-.8 2.2-1.8 2.1-3.9 6.3-12.8 6.9-14.5.3-.9 1.2-1.7 2.1-1.7.8 0 1.5-.9 1.5-2 0-1.2 1.2-3.2 2.8-4.6 1.5-1.5 2.6-3.4 2.4-4.5-.2-1.2.5-2.3 2.1-3 2.3-1.1 5.7-7 5.7-10.1 0-.9.7-1.8 1.5-2.2.8-.3 1.5-1.8 1.5-3.4 0-1.5.9-3.8 2-5 1.4-1.4 2-3.6 2.1-6.9.2-6.3-1.7-17.3-3.6-20.9-.8-1.6-1.5-3.7-1.5-4.7 0-2.2-8.8-10.7-11.1-10.7-1.9 0-9.5 7.6-16 16-2.3 3-5.6 6.8-7.2 8.5-1.6 1.6-3.6 4.3-4.4 6-2.2 4.1-9.5 14.5-10.3 14.5-.4 0-2.1 2-4 4.5s-4 4.5-4.7 4.5c-.7 0-1.3.7-1.3 1.5s-.6 1.5-1.4 1.5c-.8 0-1.6.7-2 1.5-.3.8-1.2 1.5-2 1.5-.9 0-2.3 1.4-3.1 3.1-2.4 4.5-5.2 6.9-8.1 6.9-1.8 0-2.8.6-3.1 2-.4 1.5-1.1 1.9-2.4 1.5-1.1-.4-1.9-.2-1.9.5 0 .6-1.6 1.8-3.6 2.6s-3.8 2.4-4.1 3.5c-.3 1-1 1.9-1.7 2-.6 0-3.3 2.7-6 6-2.7 3.2-5.2 5.9-5.6 5.9-.4 0-2.9 2.1-5.6 4.7-5 5-18.5 13.3-21.5 13.3-.9 0-1.9.5-2.1 1.1-.5 1.6-8.6 1.8-9.9.3-.6-.8-1.5-1.2-1.9-.9-2 1.2-3.5-.8-3.6-4.5-.1-2.2-.7-4.6-1.3-5.4-1.8-2.1.4-5.9 2.9-5.1 1.3.4 2 0 2.5-1.5.9-2.9-.1-5.2-3.4-7.5-2.7-1.7-2.8-2.1-1.5-3.9.8-1.1 1.4-2.7 1.4-3.6 0-.9-.3-1.1-.8-.4-1.3 1.9-4.2 2.5-4.2.8 0-1.1-.6-1.5-2-1.1-1.3.3-2 0-2-.8 0-.7-.6-1.5-1.2-1.8-1-.3-1-.9 0-2.6 1-1.7 1-2.1 0-1.9-.9.2-1.2-.8-1-3 .2-2.7-.2-3.5-1.8-3.9-2.4-.6-2.9-5.3-.5-5.3.8 0 1.5-.7 1.5-1.5s-.7-1.5-1.5-1.5c-2.5 0-1.7-2 1.2-3.1 2-.7 2.8-.6 3.5.3.4.7.8 1.1.9.8 0-.3.2-2 .5-3.8.2-1.8 1-4.5 1.7-6 .8-1.5 1.4-5.2 1.5-8.2.1-3.7.6-5.8 1.7-6.6.9-.6 1.6-2.8 1.7-4.8.1-3 .6-3.8 2.7-4.3 1.4-.3 3.1-1.2 3.8-1.9 1-1 1-1.3-.5-1.7-1.6-.4-1.6-.5.1-.6 2.4-.1 2.1-2.1-.3-2.1-1.6 0-1.9-.5-1.5-2.3.7-2.5-1.7-5.3-3.5-4.2-1.1.7-1.1.4-1.4-4.8-.2-2.6.6-4 4.7-7.9 2.7-2.7 6.9-6.2 9.3-8 2.4-1.7 4.4-3.5 4.4-3.9 0-.4.9-1 1.9-1.4 1-.3 2.2-1.8 2.6-3.3.4-1.5.9-2.2 1.2-1.6.2.6 1.5.9 2.9.6 1.6-.3 2.3-.9 2-1.8-.3-.8.3-2 1.4-2.6 1.1-.7 2-2 2-2.9 0-.9.6-1.9 1.3-2.2 1.7-.7 6.7.3 6.7 1.3 0 .5 1.1.3 2.5-.3 1.5-.8 2.5-2 2.5-3.4 0-1.2.7-2.9 1.6-3.7.8-.9 1.1-1.6.5-1.6-1.9 0-1.2-2.8.8-3.5 1.1-.3 2.3-1.5 2.6-2.6.4-1 1-1.9 1.4-1.9.4 0 1.5-2.4 2.5-5.3 1.1-2.8 2.4-5.9 3-6.7 3-3.9 9.2-20.2 10.7-28.2l1.3-6.8-3.4-4.7c-1.8-2.7-4.3-5.9-5.4-7.1-2.6-3-10.7-7.2-16.6-8.8-3.8-1-4.6-1-5.6.5-1.1 1.5-1.4 1.4-3.6-.6-1.7-1.6-3.3-2.1-5.8-1.8-6.5.6-12 1.8-12.6 2.6-.3.5-1.1.6-1.7.2-.6-.4-2.3-.6-3.8-.5-1.5.1-3.2-.5-3.9-1.3-.7-.8-2-1.5-3-1.5s-2.3-.7-3-1.6c-1-1.1-2.3-1.4-5.4-.8-2.3.3-4.5.9-5.1 1.3-3.8 2.3-10.1 0-11-4-.4-1.6-1.3-3.3-2.2-3.7-.8-.5-1.4-1.1-1.2-1.3.1-.2-.9-2.2-2.3-4.5-1.4-2.2-2.8-4.9-3-6-.3-1.6-1-1.8-4.4-1.6-3.8.3-4.2.1-5.2-2.6l-1-3 5.9-.7c3.7-.4 8.2-1.9 11.7-3.7 3.1-1.7 7.3-3.9 9.2-4.9 1.9-1.1 4-1.9 4.7-1.9 1.6 0 1.7-1.5.3-4.1-.8-1.4-2.1-1.9-5.6-1.9-4.9 0-8.1-1.6-13.1-6.6-1.8-1.8-4.7-3.4-6.7-3.8-1.9-.4-4.2-1.3-4.9-2.1-.8-.8-1.6-1.2-1.9-1-1.7 1.7-13.8-6-13.8-8.8 0-.7-1.2-2.9-2.6-5-1.4-2.1-2.7-4.7-2.9-5.9-.5-2.5-3.5-5.9-4.5-5.3-.5.3-1.8-1.1-3-3-1.8-2.9-2.6-3.4-5-3.1-1.9.2-2.7-.1-2.3-.7.4-.6 0-.8-1-.4-.8.3-3.3.9-5.4 1.2-2.7.5-3.4.4-2.3-.4 2.3-1.6.6-2.2-2.3-.8-2.8 1.3-3.9 5.4-1.2 4.3.8-.3 1.5-.1 1.5.5 0 1.3-6.3.4-6.8-1s-4.2-1.4-4.2-.1c0 .5-.8 1-1.8 1s-2.7.7-3.9 1.5c-1.9 1.4-2.1 1.3-2.7-1.7-1.1-5.4-.7-7.7 1.6-8.9 1.7-.9 2.4-.9 3.3.5 1.5 1.9 2.6 2.1 1.9.2-.4-1 .6-1.2 4.5-.8 4.6.4 5.1.2 5.1-1.5 0-1.1 1.8-3.9 4-6.2 3.7-3.8 4-4 4.1-1.9.1 2.1.2 2.1.6.3.3-1.1.9-2.5 1.4-3.1.5-.6.7-1.8.4-2.6-.4-.9.4-1.8 2.2-2.5l2.8-1.1-2.7-.1c-3.4-.1-3.6-1.4-.6-3.5 2.2-1.5 2.2-1.7.5-4.5-.9-1.6-1.7-4.3-1.7-5.9 0-1.7-.5-3.4-1.2-3.8-.7-.5-.5-1.1.8-2.1 1.5-1.1 1.6-1.7.7-3.1-1.4-2.3-.5-7.2 1.3-7.9.8-.3 2.1 0 2.9.7.9.7 1.8 1 2.2.6.3-.3.1-.6-.5-.6-1.7 0-1.5-2.6.4-5.5.9-1.4 1.4-3.2 1-4-.3-.9 0-1.5.8-1.5 1.8 0 9.6-7.4 9.6-9.1 0-1.7 5.6-12.7 7.6-15 .7-.8 1.5-2.9 1.7-4.6.4-3.3 4.3-10.3 5.8-10.3 3 0 11.8 8.3 13.9 13 .6 1.4 3 3.9 5.3 5.7 2.3 1.7 5.3 4.2 6.6 5.4 1.6 1.5 2.5 1.8 3 1 .5-.7 1.5-.9 2.6-.5 1.3.5 1.6.4 1.1-.4-.4-.7-.1-1.2.8-1.2.8 0 1.7.6 1.9 1.2.4 1 .6 1 .6 0 .1-.7.6-1 1.2-.7 1.3.9.4-4.8-2.1-13-6.4-20.7-9.1-38.3-6-39.3.6-.2 1.9-1.2 2.8-2.2 1.6-1.8 6.3-4 8.3-4 .5 0 .9.7.9 1.5 0 1.3.4 1.4 2.1.5 1.9-1.1 2-1 .9.9-.6 1.2-1.4 2.1-1.8 2.1-.4 0-.6 1.8-.4 4 .3 2.6-.3 5.4-1.7 8.3-1.2 2.4-2.1 5-2.1 5.8 0 2.4-1 2.9-3.6 1.9-3-1.2-3.1-.1-.5 9.5 2.7 10.6 4.9 14 8.2 12.9 2.8-.8 6.1 4.3 5.3 8.2-.5 2.6-.2 3.4 1.4 4.3 2.9 1.6 3.2 1.4 3.2-1.5 0-1.4.6-3.2 1.4-4 .8-.7 1.6-1.9 1.9-2.6.3-1 .9-.9 2.3.4 1.7 1.4 2.6 1.5 8.5.4 5.3-1 7.5-1 11.5 0 2.7.7 6.3 1.3 8.1 1.4 1.7 0 3.3.5 3.5 1.2.6 1.6 13.5 2 16.2.6 1.5-.8 2.1-.8 2.4.1.6 1.8 1.8 1.3 5.5-2.4 1.9-1.9 4-3.5 4.6-3.5.9 0 7.1-5.4 7.1-6.2 0-.2-1.4-.4-3.1-.4-1.7-.1-3.4-.7-3.8-1.3-.5-.7-1.2-1.1-1.7-1-2.1.4-2.6-.2-1.4-1.6 1.1-1.3 1-1.5-.6-1.4-5.4.5-5.6 0-1.5-4 4.2-4.1 6.6-4.8 17.6-5.7 6.9-.6 14.4.2 27.7 2.7 5.6 1.1 6.9 1.1 8.4-.1 1.5-1.4 1.5-1.5-.7-2.1-1.3-.4-3.9-.7-5.7-.8-1.8-.1-4.3-.7-5.5-1.5-2-1.2-9.5-2.6-29.2-5.6-9.2-1.4-21.3-7.4-22.2-11-.3-1.4-1.7-4.4-3-6.8-1.9-3.4-2.2-4.6-1.3-6.3.7-1.1.9-2.7.6-3.5-.3-.9.1-1.4 1.2-1.5 1.2 0 1.3-.2.4-.6-.9-.3-.3-1.2 1.7-2.4 2.4-1.4 5.9-2 14.4-2.5 6.1-.3 13-.7 15.2-.8 2.2-.2 6.9.1 10.5.6 3.6.5 8.4.9 10.8.8 3.1-.1 5.8.7 9.6 3 2.9 1.6 6.1 3 7 3 .9 0 1.6.8 1.6 1.9 0 1.3 1 2 3.5 2.4 5.6.9 10.1 4.3 13.4 10 2.5 4.4 3 6.4 3.2 12.9.1 4.2.5 7.6.8 7.5.3-.1 1.7.9 3 2.2 1.4 1.4 2.6 2 3.3 1.3 2-2 8.8 1.3 10 4.9.6 1.8 5.7-2.1 5.8-4.4 0-1 .5-1.5 1-1.2.6.4 1 5.2.9 11.5 0 7.7.4 12.4 1.7 16.4 1 3.1 2 5.6 2.3 5.6 1.2 0 4.1-8.6 4.4-12.8.2-3.6 1.1-5 5.9-10 6.9-7.1 7.9-8.9 7.1-13.6-.5-3-.2-4.1 1.5-5.7 2.8-2.6 3.9-6.8 2.1-8-1-.6-1.4-3.2-1.5-9.1 0-11.3-1.5-20.4-8.9-57.6-.8-4-1.5-10-1.5-13.3 0-3.3-.5-7-1.2-8.2-1.3-2.5-1.6-4.5-2.1-16.7-.2-5.5-1-9.6-2-11.5-.9-1.7-1.7-4.6-1.7-6.5 0-4.2-2.3-11.9-4.4-15.2-.8-1.3-1.8-4.8-2.2-7.8-.4-3-1-6-1.4-6.5-1.7-2.2-5.9-14.2-6.3-18-.5-4.8-2.7-10.7-4.4-11.8-.7-.4-1.3-1.5-1.3-2.3 0-.8-.6-1.7-1.3-2-.7-.2-1.3-2-1.3-4 0-1.9-.5-3.9-1.2-4.2-.6-.4-1.4-2.7-1.8-5.1-.4-2.5-1.4-4.5-2.3-4.9-1.6-.7-2-1.6-2.8-6.2-1.1-6.8-2.7-9.6-7.5-13.3-2.7-2.1-5.3-5-5.9-6.5-.6-1.5-1.3-2.9-1.7-3.2-.4-.3-1.2-1.4-1.9-2.5-.6-1.1-1.5-1.9-2.1-1.8-.5.1-1.5-.9-2.2-2.2-.7-1.4-1.7-2.5-2.2-2.5-.4 0-.8-.7-.8-1.6 0-.9-.9-2.7-2-4.1-1.1-1.4-2-3.1-2-3.9 0-.7-1.4-1.5-3.1-1.9-2.2-.5-3.4-1.5-4.1-3.6-.5-1.6-1.6-2.9-2.2-2.9-.7 0-2.1-.9-3.1-2s-2.6-2-3.6-2-2-.4-2.4-.9c-.3-.5-3-1.3-6-1.6-3-.4-5.6-1.2-5.7-1.9 0-.6-.2-1.7-.2-2.5-.1-.8-1.6-1.9-3.4-2.3-1.8-.5-3.2-1.5-3.2-2.3 0-1.4-.6-1.6-5-1.9-.9-.1-1.6-1.3-1.8-2.9-.2-1.9-.9-2.7-2.3-2.7-1 0-1.9-.5-1.9-1.1 0-.8-1.4-1-4.1-.6-3.5.5-4.2.2-4.6-1.4-.3-1.2-1.4-1.9-2.9-1.9-1.3 0-2.4-.4-2.4-.9s-1.8-1.1-4.1-1.5c-2.2-.4-5.1-1.3-6.4-2.2-1.3-.9-2.8-1.3-3.3-1-.6.3-1.5-.1-2.2-.9-.7-.9-2-1.5-2.9-1.4-2.8.2-3.8-.1-6.1-2.1-1.3-1.1-3.1-2-4.1-2-1 0-2.1-.5-2.5-1.1-.3-.6-2-.9-3.8-.6-3.5.6-10.3-1-12.7-3-.8-.7-3.2-1.3-5.2-1.3s-3.9-.5-4.2-1.1c-.9-1.3-7.8-.5-8.3 1-.5 1.5-2.9 1.4-3.9-.2-.9-1.5-24.5-5-25.3-3.8-.9 1.5-16.1.4-17.3-1.2-.8-1-1.8-1.2-3.2-.7zm98 141c2.4 1.1 4.7 2.4 5 3 .3.6 1.7.7 3.1.4 1.3-.3 3.1-.1 3.8.5 1.9 1.6 15.1 2.4 17.5 1.1 1.4-.7 2.2-.6 3.1.5.7.8 1.8 1.5 2.5 1.5s1.8.6 2.4 1.4c.6.7 2.4 1.6 3.9 2 1.5.3 5.5 3.3 9 6.6s6.8 6 7.3 6 .9.4.9.9.9 1.1 2 1.4c1.1.3 2.3 1.3 2.7 2.4.9 2.4 2.9 4.3 4.5 4.3.7 0 2.4 1.7 3.7 3.8 1.4 2 3.7 5 5.2 6.7 1.6 1.6 4 5.7 5.4 9 1.4 3.3 3 6.9 3.4 8 1.4 3.3 3.9 12.7 4.7 17.5.3 2.5 1.2 5.6 1.9 7 .7 1.4 1.6 4.4 2 6.7.4 2.4 1.1 4.5 1.6 4.9.5.3.9 1.7.9 3.2 0 3.3 7 31.5 8 32.2.4.3.9 1.8 1.2 3.3 1 5.4-5.9 5.5-14.4.3-7.8-4.8-8.3-5.1-8.8-5.6-.3-.3-2-1.3-3.9-2.3-2.8-1.5-3.9-1.6-6.6-.6-4.1 1.5-6.5.6-6.5-2.4 0-3.4-3.7-4.7-13.8-4.7-5.8 0-9.7-.5-11.6-1.5-2.2-1.2-6.5-1.5-17.2-1.6-7.9 0-14.8.2-15.4.6-1.5.9-18.7 3.5-23.5 3.5-2.2 0-5.1.7-6.3 1.6-1.2.8-2.2 1.2-2.2.9 0-.3-.5-.3-1.1.1-.6.3-3.3.8-5.9 1-2.7.2-7.8 1.8-11.3 3.4-3.6 1.7-7.1 3-7.9 3-.8 0-1.8 1.5-2.3 3.2-.9 2.9-1.4 3.3-4.3 3.1-1.8 0-3.1.1-2.9.3.2.3-.7 1.8-2.1 3.4-2.1 2.4-3.5 3-6.7 3-2.2 0-5.5.4-7.4 1-4 1.1-8.5-.8-9.4-4-.3-1.1-1.3-2-2.2-2-1.8 0-7.1-2.7-9.2-4.7-1.6-1.4-1.7-4.3-.3-4.3.6 0 .4-1.3-.5-3-1.8-3.4-3.8-3.8-5.7-1.1-.7 1-2.8 2-4.7 2.3-2.7.4-3.5.1-3.9-1.4-.2-1-.9-1.9-1.6-1.9-.6-.1-1.8-.3-2.6-.4-.8-.1-2.1-.3-2.7-.4-.8 0-1.3-1.5-1.3-3.4 0-2.3-1-4.3-3.5-7-1.9-2-3.8-4.5-4.4-5.4-.8-1.4-1.2-1.5-2.5-.4-1.4 1.2-1.9 1.1-3.6-.4-1.8-1.6-2-1.6-2-.2 0 1-.5 1.7-1 1.7-.6 0-1.6 1.1-2.2 2.5-.6 1.4-1.7 2.5-2.5 2.5-.7 0-1.3.5-1.3 1.2 0 .6-.3.8-.7.5-.3-.4-1.5 0-2.4.9-1.7 1.6-1.9 1.6-2.5 0-.4-.9-1.7-1.6-3.3-1.6-1.5 0-3.7-.7-5-1.6-1.2-.9-4.6-1.8-7.4-2-2.9-.3-5.4-.9-5.6-1.5-.1-.5-.9-1.5-1.6-2.2-.6-.6-1-1.9-.7-2.9.3-1.3-.1-1.8-1.7-1.8-1.1 0-2.1-.5-2.1-1 0-.6.8-1 1.8-1s1.9-.6 1.9-1.4c0-.8-.8-1.1-2-.8-1.5.4-1.4 0 .8-2.2 1.7-1.8 3.5-2.6 4.6-2.3 2 .5 4.6-2.7 4.1-5.1-.2-.6.2-1.2.8-1.2.5 0 1 .4 1 1 0 .5.7 1 1.6 1 1.4 0 1.6-.7 1.1-4-.5-3.9-.4-4 2.1-3.4 2.5.6 2.6.5.8-.8-1.8-1.4-1.8-1.5.3-2.1 1.5-.4 2.7.2 4.1 2 1 1.3 2.4 2.2 2.9 1.9 1.1-.7.6-4.3-.9-6.1-1.4-1.7 1.2-2.7 4.6-1.9 2.6.7 3.2 2 1.2 2.6-.9.3-.8.9.4 2.1 1.8 1.8 4.3 2.3 3.3.7-.4-.6.7-1 2.4-1s3.1.4 3.1 1c0 .5.9 1 2 1s2-.5 2-1c0-.6-.9-1-2-1s-2-.5-2-1c0-.6-.7-1-1.5-1s-1.5-.5-1.5-1c0-.6 1.1-1 2.5-1 2.9 0 3.1-.6 1.1-2.6-1-1-1.7-1.1-2.1-.3-.5.8-1 .8-1.8 0-1.4-1.4-3.7-1.4-3.7-.1 0 .5.7 1 1.5 1s1.5.4 1.5 1c0 1.2-.3 1.2-2.4.4-.9-.3-1.6-1.7-1.6-3 0-3-.7-3-3.7-.2-2.7 2.6-2.9 2.4-3.6-2.7-.3-2.2-.3-3.2-.1-2.3.7 2.2 2.3 2.3 3 .3.4-.8 1.6-1.5 2.8-1.6 2.3-.1 1.7-.4-2.7-1.3-1.6-.4-2.5-1.1-2.1-1.7.4-.6.1-1.5-.6-1.9-.7-.4.6-1 3.1-1.4 3.3-.5 4-.9 2.9-1.6-1.2-.8-1.1-1.1.8-1.6 1.2-.4 2.2-1 2.2-1.4 0-1.1-3-2.1-4.2-1.4-.6.4-.9.1-.6-.7.3-.8 1.9-1.4 4.1-1.4 1.9-.1 3.3.3 3.1.7-.3.4.5 1.2 1.6 1.8 2.2 1.2 2.7 3.6.8 4.2-.6.2-.9.9-.5 1.5 1 1.5 7.6-1.8 7.7-3.8 0-1.9 3.7-3.9 6.5-3.6 1.6.2 2-.4 2-3 0-1.7.3-3.5.8-3.9.4-.4.7 0 .7.9 0 1.2.8 1.7 2.6 1.7 2.4 0 2.6-.2 2-3.4-.4-2-.2-3.7.4-4.1.5-.3 1-2.1 1-4s.5-3.7 1-4c.6-.3 1-1.5 1-2.6s.6-2.2 1.4-2.5c.8-.3 1.8-1.9 2.1-3.6.5-2.3 1.1-2.9 2.5-2.5 1 .3 2.1-.1 2.3-.8.3-.7 1.7-1 3.8-.7 2.6.4 3.1.2 2.6-1.1-.4-1.1.7-2.1 4-3.7 2.5-1.2 4.8-1.9 5-1.6.3.3 1.5-.1 2.7-.9 1.1-.8 2.7-1.5 3.6-1.5.8 0 2.8-.7 4.4-1.5 1.5-.8 3.7-1.5 4.9-1.5 1.1 0 2.6-.8 3.2-1.7 1.2-1.7 1.4-1.7 3.4.1 1.2 1.1 2.1 1.5 2.1 1s2.5-1.4 5.6-2c4.4-.8 5.9-.7 6.9.3 1.6 1.5 2.9 1.7 2 .3-.8-1.3-.3-1.3 3 0 1.8.7 2.5 1.5 2.1 2.5-.3.9 0 1.5.9 1.5.8 0 1.5-.4 1.5-.8 0-1.2 3.9-5.2 5-5.2.6 0 1 .9 1 2 0 1.3.7 2 2 2 1.1 0 2-.6 2-1.4 0-1.8 2.2-2.5 8.2-2.5 3.1.1 5.3-.5 6.4-1.5 1.8-1.9 1.4-1.9 5.3-.5 2.9 1 3.4.9 4.7-1 1.9-2.6 2.4-2.6 7.9-.1zM340 205c0 1.9-2 2.7-3.3 1.3-.8-.7 1.1-3.3 2.4-3.3.5 0 .9.9.9 2zm-21 18.6c0 .8-.4 1.4-1 1.4-.5 0-1-.9-1-2.1 0-1.1.5-1.7 1-1.4.6.3 1 1.3 1 2.1zm236.3 75.1c-.7.2-1.9.2-2.5 0-.7-.3-.2-.5 1.2-.5s1.9.2 1.3.5zM187.6 301c-.2.8-.7 3.3-1.1 5.5-1 6.5-4.9 18.5-6 18.5-.5 0-3-.9-5.4-2.1-5.5-2.4-6.1-1.8-6.1 7.1s1.5 13.9 4.6 15c1.3.5 2.4 1.8 2.4 2.8 0 2.5 2.9 13.2 4.4 16.2 1 2.1 1 3.1 0 5.5-2.2 5.1-2.7 4.6 7.7 9.7 3 1.4 6.8 3.2 8.5 3.9 2.6 1.1 2.9 1.5 1.9 2.6-1.8 1.8-3.6 1.6-11.5-.7-8.8-2.6-14.6-6.9-17.1-12.6-2.9-6.6-5.2-28.9-4.7-45.9.6-17.9 1.2-19.1 11.3-23.9 8.2-3.9 11.8-4.4 11.1-1.6zm114.7 4.2c-.2 3.3 1.2 3.7 2 .7.5-1.7 1.1-2 3.4-1.5 1.5.4 4.2.2 5.8-.2 1.7-.5 3.9-.6 5-.2 1.1.4 2.3.3 2.7-.4 1-1.6 2.1 0 2.2 3.3.1 1.6.3 2.9.6 2.9s1.2 0 2 .1c2.9.3-1.2 2.1-5 2.2-1.9.1-2.7.3-1.7.6 1.1.3 2.7 1.3 3.7 2.3 1.6 1.6 1.6 1.9.1 4.4-.8 1.4-2.4 2.6-3.5 2.6s-2.7.7-3.7 1.6c-1.6 1.5-1.9 1.4-3.1-.5-.9-1.5-1.9-1.9-3.7-1.4-1.7.4-2.2.3-1.6-.6.4-.8-.1-1.4-1.4-1.8-1.2-.3-2.1-1.3-2.1-2.4 0-1-.5-2.1-1.1-2.5-.8-.4-.7-.9.2-1.5 1.1-.7.9-.9-.6-.9-1.1 0-3.1-1.2-4.4-2.6-2-2.1-2.2-2.7-1-3.5.8-.5 1.9-.7 2.6-.4.7.2 1.5 0 1.8-.5.4-.6-.3-1-1.4-1-1.1 0-2.3-.5-2.6-1.1-.5-.7.3-.9 2.1-.7 2.5.3 2.9.7 2.7 3zM486 304c0 .5-.4 1-1 1-.5 0-1-.5-1-1 0-.6.5-1 1-1 .6 0 1 .4 1 1zm113.4 3.4c3.8 4.3 6.5 14.7 4.6 17.6-.7 1.1-1 1.1-1 .2 0-.7-.5-1-1.1-.7-.5.4-2 .4-3.3.1-2.6-.6-4.1-4.8-5.2-14.5l-.7-6.3 2.4.7c1.3.4 3.2 1.7 4.3 2.9zM432 309c0 .5-.5 1-1.1 1-.5 0-.7-.5-.4-1 .3-.6.8-1 1.1-1 .2 0 .4.4.4 1zm184.4.2c.3.7.7 7 1 14 .5 12.3.5 12.8-1.8 15.5-1.3 1.5-2.6 3.9-3 5.3-1.3 4.6-2.8 8-3.6 8-1.5 0-1.1-27.5.5-32.6.8-2.7 1.5-6.1 1.5-7.5 0-1.4.3-2.9.7-3.2 1.1-1.2 4.3-.8 4.7.5zm-257.5 13.3c0 2.2-.4 4.9-.8 5.9-.4 1.2-.7-.4-.7-4 .1-3.2-.3-7-.7-8.4l-.8-2.5 1.5 2.5c.9 1.4 1.5 4.3 1.5 6.5zm49 4.4c.6 1 .8 2.1.4 2.4-.3.4.2.9 1.1 1.3 2.7 1 1.8 2.5-1.1 1.8-3.6-.8-5.3-3-5.3-6.6 0-2.5.2-2.8 2-1.8 1.1.6 2.4 1.9 2.9 2.9zm197.5 7.4l-.7 2.2-.8-2.3c-.5-1.2-.6-2.9-.2-3.8.5-1.5.7-1.5 1.5 0 .5.9.6 2.6.2 3.9zm-248.7-.1c-.3.8-.6.5-.6-.6-.1-1.1.2-1.7.5-1.3.3.3.4 1.2.1 1.9zm79.3 22.2c0 1.1-1.9 1.5-2.5.6-.3-.5.1-1 .9-1 .9 0 1.6.2 1.6.4zm-83.3 9.3c.9 2.3-1.4 6.3-3.7 6.3-1.1 0-2-.4-2-1 0-.5-.7-.7-1.5-.4-1.1.5-1.3 0-.5-2.5.4-1.7 1.1-3.4 1.4-3.9.8-1.4 5.7-.2 6.3 1.5zm-87-.2c.5.8 2.4 1.5 4.3 1.6 1.9.1 4.3.4 5.3.6 1.5.4 1.5.6.2 1.9-.8.9-1.9 1.2-2.5.9-.5-.3-1 0-1 .8 0 1.2.7 1.3 3.6.7 2.1-.5 4-1.4 4.4-2 .8-1.3 2.5 1.6 2.1 3.7-.3 1.8 1.8 1.6 2.5-.2.4-.8 1.8-1.5 3.4-1.5 1.5 0 3.7-.9 5-2 1.3-1.1 3.2-2 4.4-1.9 2.1 0 2.1.1.1 1-1.6.7-1.3.8 1.2.4 2.9-.4 3.4-.1 3.9 2.2.4 1.5.3 3.8-.2 5.2-.5 1.4-.7 4.2-.4 6.1.4 2.9.9 3.6 3.3 3.8 2.3.3 2.7.7 2.1 2-.4.9-.7 2.7-.7 3.9.1 1.4-.7 2.5-1.9 2.9-1 .3-2.4 1.7-3 3-.6 1.3-1.5 2.4-2 2.4s.1 1.8 1.4 3.9c2 3.5 2.1 4.2.8 6.7-.7 1.6-1.4 3.3-1.4 3.7-.1.4-.5 1.1-1.1 1.5-.5.4-1.1 1.3-1.3 2-.4 1.9-8.3 12.2-9.3 12.2-.5 0-.9.5-.9 1.2s-1.3 2.6-2.9 4.3c-2.3 2.4-10.9 17.3-11.9 20.7-2 6.4-4 10.4-7.6 15.1-2.7 3.6-6.9 13.8-6.6 16.2.1.3-.6 1.8-1.4 3.3-.8 1.5-2 4-2.8 5.7-2.2 4.7-5.9 10.5-6.8 10.5-.4 0-1.3 1.3-2 2.9-.6 1.6-2.2 3.8-3.6 5-1.3 1.1-2.4 2.8-2.4 3.6 0 .9-.7 2.7-1.6 4.1-1.4 2-1.5 4.1-1.1 11.4.4 5 1.3 10.2 2 11.7.8 1.6 1.7 4.1 2.1 5.8.4 1.6 1.8 5.2 3.1 8 4.2 9 7 18.8 6.9 24-.2 9.3-1.6 20.5-2.5 20.5-.5 0-.9.5-.9 1.1 0 1.7-2.3 3.5-5.3 4.1-2.6.5-3.9-.6-1.5-1.4.6-.2.8-1 .4-1.7-.6-.9-1.2-.8-2.7.5-1.7 1.5-2.1 1.5-5.3 0-2.1-1-3.6-2.5-3.8-3.9-.2-1.2-.9-2.1-1.6-1.9-.7.1-1.5-.6-1.9-1.5-.3-1-1.8-4.5-3.3-7.8-2.7-5.9-3.9-9.8-4.4-14.3-.1-1.3-.9-2.7-1.6-3.2-.7-.4-1-1.5-.7-2.4.3-.8.2-1.8-.4-2.1-.5-.4-.7-1.1-.4-1.6.4-.5.1-.9-.4-.9-.6 0-1.1-.7-1.1-1.5s.5-1.5 1-1.5c.6 0 1-.7 1-1.5s-.6-1.5-1.2-1.5c-.9 0-.8-.4.2-1 .9-.6 1-1 .3-1-1.7 0-2.6-3.6-1.4-5.9.8-1.4.7-2-.3-2.4-1.1-.4-1.2-1.6-.5-5.4.5-2.6.7-5.4.4-6.1-.2-.7.1-1.5.8-1.7.7-.3 1.1-2.2 1-4.6 0-2.6.4-4.2 1.3-4.6.8-.3 1.4-1.1 1.4-1.9 0-.7.9-1.8 2-2.4 1.4-.8 2-2.1 2-4.5 0-1.9.5-3.5 1.1-3.5.6 0 .8-.7.5-1.6-.3-.8-.2-1.2.4-.9.6.3 1 .1 1-.4 0-.6.7-1.1 1.5-1.1 1.9 0 1.9-1.4 0-3.3-.8-.8-1.1-1.7-.8-2.1.4-.3 0-1.7-.7-3.1-1-2-1.1-2.8-.2-3.7.7-.7 1.2-2.9 1.2-5 0-2 .6-4.1 1.4-4.5 1.7-1 2.6-6.1 1.2-6.7-.6-.2-.3-.5.7-.5 1.5-.1 1.7-.7 1.3-2.9-.3-1.5-.2-4.1.3-5.7.5-1.7 1-2.4 1-1.6.1 2.1 3.1-.7 3.1-3 0-.9-.7-2.4-1.5-3.3-.8-.8-1.5-2.1-1.5-3 0-.8-.5-1.8-1-2.1-.6-.4-.8-1-.5-1.5.3-.5.1-1.8-.5-2.9-.5-1.1-.6-2.2-.1-2.5 1.2-.8 2-6.6.9-7.2-.4-.3-.8-2.2-.8-4.2-.1-3.1-.3-3.4-1.3-2.2-1.2 1.6-4.7 1.6-4.7 0 0-.5.8-1.1 1.8-1.3.9-.3.1-.5-2-.6-3.2-.1-3.5-.4-3.1-2.2.4-1.4 0-2.5-1.1-3.1-.9-.5-1.6-1.5-1.6-2.2 0-.7-2.4-2.2-5.4-3.5-5.1-2.1-5.5-2.5-5.8-5.9-.3-3.2-.7-3.7-3.5-4.3-2.3-.4-3.3-.3-3.3.6 0 1.9-4.7 6.8-5.4 5.6-1.5-2.4 4.7-9.4 7.7-8.5.9.3 1.7.1 1.7-.5s1.1-1.3 2.3-1.7c1.9-.4 2.3-1.1 1.9-2.9-.3-2.1.1-2.5 3.7-3.5 2.5-.7 4.1-1.7 4.1-2.6 0-1.1.8-1.5 2.8-1.3 2.5.2 4.6-.1 12.7-1.7 9.6-1.9 13.4-2.5 17-2.8 5.6-.4 7.8-1.4 6.2-3-2.3-2.4-5.2-3.4-9.5-3.3-2.7 0-5-.6-5.9-1.6-1.5-1.4-1.4-1.6 1.1-2.3 1.5-.3 3.7-.2 5 .4 1.7.7 3 .5 5.6-.9 1.9-1 4.3-1.8 5.3-1.9 2.3 0 2.2-1.2-.3-3-2-1.4-2.9-3.7-1-2.5.6.3 1 0 1-.8s-1-1.7-2.2-2.1c-1.8-.5-2-.8-.9-1.5.7-.5 1.3-2.2 1.3-3.7 0-3.4 1.2-5 5.3-7.6 3.6-2.2 5.1-2.3 6.2-.3zm4-.9c-.3.3-1.2.4-1.9.1-.8-.3-.5-.6.6-.6 1.1-.1 1.7.2 1.3.5zM218 387.4c0 .3-.4.8-1 1.1-.5.3-1 .1-1-.4 0-.6.5-1.1 1-1.1.6 0 1 .2 1 .4zm-21 29c0 .2-.7.7-1.6 1-.8.3-1.2.2-.9-.4.6-1 2.5-1.4 2.5-.6zm1.7 14.1c.8.9 1.3 1.8 1.1 2.1-.3.2-1.3-.5-2.3-1.6-2.1-2.3-1.1-2.7 1.2-.5zM186 432c0 .5-.4 1-.9 1s-1.1.6-1.3 1.4c-.3 1.3-.6 1.3-2.2 0-1.9-1.4-1.9-1.4.2-1.4 1.2 0 2.2-.5 2.2-1 0-.6.5-1 1-1 .6 0 1 .4 1 1zm27 1.4c0 1.1-1.9 1.5-2.5.6-.3-.5.1-1 .9-1 .9 0 1.6.2 1.6.4zm241 116.7c3.8 1.2 6 4 6 7.9 0 1 1 2.6 2.1 3.4 2.5 1.7 3.6 8.3 2.2 13.6-.6 2.5-1.8 3.9-4.1 5-3.5 1.6-3.9 3.6-2.1 8.9 1 2.9.9 3.5-1.5 6-2 2.1-2.6 3.7-2.6 7.4 0 3.6-.5 5.1-2.1 6.5-1.2.9-2.7 2.3-3.4 2.9-.8.7-1.8 1.3-2.4 1.3-.6 0-1.1.3-1.1.7 0 .5-2.3 3.2-5 6-4.3 4.5-5.3 5.2-7.2 4.4-7.9-3.1-10.8-3.4-12.7-1.7-3 2.8-6.2 2.8-11.9 0-5.3-2.6-5.4-2.6-9.2-.9-4.7 2.1-9.3 1.3-12.3-2.1-2.5-2.9-4-3-8.3-.3-3.1 1.9-3.5 1.9-6.4.4-4-2.1-6.8-8.2-7.7-16.6-.4-4.5-1.2-6.9-2.8-8.5-2.4-2.4-6-11-7-16.6-.4-2.9 0-5.1 2-9.2 2.9-6 6.8-8.7 11.9-7.9 3.9.5 13 5 15.2 7.5 1.7 1.7 1.8 1.7 2.9-.4.6-1.3.8-2.8.4-3.3-1-1.4 1.9-7.3 4.1-8.5.9-.5 3.4-.8 5.6-.6 2.4.1 5.4-.5 7.6-1.7 2.6-1.3 5.2-1.8 8.3-1.5 3.1.2 4.5-.1 4.5-.9 0-1.6 1-1.6 3.3.1 1.3 1 2.8 1.1 5.7.5 2.4-.6 4.9-.5 6.6.1 1.5.6 2.9.8 3.2.5.3-.2 1.1 0 1.7.5.9.7 2.9.3 6.6-1.5 6.3-2.9 5.3-2.8 9.9-1.4zm-110 23.1c0 .9.4.8 1-.2.9-1.3 1.3-1.1 2.9.9 2.9 3.8 1.2 6.6-4.2 6.6-3.1 0-4.2-.4-4.2-1.5 0-.8-.4-1.8-.8-2.1-1.3-1 1.6-4.9 3.5-4.9 1 0 1.8.6 1.8 1.2zm-1.8 18.4c1.5 2.7 2.7 5.6 2.7 6.4.1 1.6-8 9-9.7 9-2.6 0-3-2.7-1.6-10.4 2.1-12.1 4.1-13.3 8.6-5zm13.6 1c1.3-.8 2.5 4 1.5 5.9-1.3 2.2-2.9.4-3.6-4-.4-2.4-.3-3.4.2-2.6.5.7 1.3 1.1 1.9.7zM8 608c0 .5-.7 1-1.6 1-.8 0-1.2-.5-.9-1 .3-.6 1-1 1.6-1 .5 0 .9.4.9 1zm16.3 11.6c1.1 1.1-.3 2.4-1.8 1.8-.8-.4-1.2-1-.9-1.5.6-1.1 1.8-1.2 2.7-.3zM28 626c0 .5-.4 1-1 1-.5 0-1-.5-1-1 0-.6.5-1 1-1 .6 0 1 .4 1 1zm6 4.1c0 .5-.4.9-1 .9-.5 0-1-.7-1-1.6 0-.8.5-1.2 1-.9.6.3 1 1 1 1.6zm424.5.9c-.3.5-1 1-1.6 1-.5 0-.9-.5-.9-1 0-.6.7-1 1.6-1 .8 0 1.2.4.9 1zM34 636c0 .5-.4 1-1 1-.5 0-1-.5-1-1 0-.6.5-1 1-1 .6 0 1 .4 1 1zm15.5 7c.3.5.1 1-.4 1-.6 0-1.1-.5-1.1-1 0-.6.2-1 .4-1 .3 0 .8.4 1.1 1zm10.9 1.6c.3.8.2 1.2-.4.9-.6-.3-1-1-1-1.6 0-1.4.7-1.1 1.4.7zm3.4 15.2c.6 1.8-1.5 1.4-2.2-.4-.4-1-.1-1.4.6-1.2.6.2 1.4 1 1.6 1.6zm16.2 1.7c0 .8-.6 1.5-1.4 1.5-2 0-2.9-1.7-1.4-2.3 2.2-.9 2.8-.7 2.8.8zm3.6 8.7c-.3 1.3-.5 2.4-.5 2.6-.1.1-.7-.3-1.5-1-1.3-1.1-1.3-1.5.2-2.6 2.1-1.6 2.3-1.6 1.8 1zm120.9 1.8c.3.5-.1 1-.9 1-.9 0-1.6-.5-1.6-1 0-.6.4-1 .9-1 .6 0 1.3.4 1.6 1zm-96.6 7.7c.1.7-.3 1.3-.9 1.3-.5 0-1-1.5-.9-3.3 0-2.7.2-2.9.9-1.2.5 1.1.9 2.6.9 3.2zm.6 4.3c1.4.5 2.3 1.4 2 2-.3.5-.1 1 .4 1 .6 0 1.1.4 1.1 1 0 1.5-2.9 1.2-4.6-.5-.9-.8-2.4-1.5-3.5-1.5-1.7 0-1.8-.2-.7-1.5 1.6-1.7 2-1.8 5.3-.5zm-4.5 4c0 .5-.4 1-1 1-.5 0-1-.5-1-1 0-.6.5-1 1-1 .6 0 1 .4 1 1zm16 3c0 .5-.4 1-1 1-.5 0-1-.5-1-1 0-.6.5-1 1-1 .6 0 1 .4 1 1zm59.5 4c-.3.5-1.3 1-2 1-.9 0-1.2.6-.9 1.5.4.8.2 1.5-.4 1.5-1.5 0-2.2-2.6-.9-3.9 1.4-1.4 5-1.5 4.2-.1zm-24.5 6.9c1.6 3.1 1.2 5.1-1 5.1-1.1 0-2-.4-2-1 0-.5-.8-.7-1.7-.4-1.7.5-1.7.5 0-.6.9-.6 1.7-2 1.7-3 0-2.6 1.6-2.6 3-.1zm15 .1c0 .5-.9 1-2 1s-2-.5-2-1c0-.6.9-1 2-1s2 .4 2 1zm259.7 43.6c-.3.3-1.2.4-1.9.1-.8-.3-.5-.6.6-.6 1.1-.1 1.7.2 1.3.5z"/><path d="M352 204.8c0 .7-1 1.2-2.2 1.2-1.7 0-1.9.3-1 1.2 1 .9 1.6.8 2.9-.5.9-.9 1.4-2 1-2.3-.4-.4-.7-.2-.7.4zM336 214c0 .9 3.1 3 4.5 3 .3 0 .1-.9-.5-2-1.1-2-4-2.8-4-1zM346.7 218.7c-1 .3-2 1.7-2.4 3.3-.3 1.6-1.3 3.1-2.2 3.3-1.3.3-1.3.5.4 1.1 1.1.4 3 1.2 4.2 1.8 1.2.6 2.7.7 3.5.2.7-.5 1.8-.9 2.3-.9.6 0 1.2-1.3 1.3-2.9.3-2.2-.3-3.4-2-4.8-1.2-.9-2.5-1.7-2.8-1.7-.3.1-1.3.3-2.3.6zM335 235.5c-.7.8-2.3 1.5-3.6 1.5-1.7 0-2.4.6-2.4 1.9 0 1-.6 1.9-1.2 1.8-.7 0-2.5.1-4 .1-2.4.2-2.5.4-1.5 2.7 1.4 2.9 2.2 3.1 3.1.9.3-.9 1.3-1.4 2-1.1.8.3 1.7-.1 2-.9.7-1.7 5.9-1.9 8.6-.2 1.5 1 2.2 1 3.2 0 1.1-1.1 1-1.6-.3-2.5-.9-.7-1.9-2.2-2.3-3.5-.9-2.6-1.9-2.8-3.6-.7zM320 238c0 .5.5 1 1 1 .6 0 1-.5 1-1 0-.6-.4-1-1-1-.5 0-1 .4-1 1zM541.5 275c-.7 1.2.2 3 1.6 3 1.2 0 1.2-2.7 0-3.5-.5-.3-1.2-.1-1.6.5zM263.5 384c-.3.5-.1 1 .4 1 .6 0 1.1-.5 1.1-1 0-.6-.2-1-.4-1-.3 0-.8.4-1.1 1zM232 454c0 .5.5 1 1 1 .6 0 1-.5 1-1 0-.6-.4-1-1-1-.5 0-1 .4-1 1zM432 580c0 6.2.7 7.1 3.4 4.5.8-.8 1.9-1.5 2.5-1.5 1.8 0 1.3-3-1-6.1-3.4-4.8-4.9-3.8-4.9 3.1zM383.4 585.7c-.4 1.5-1.3 4-2.1 5.6-1.7 3.3-.2 4.4 4 2.8 2.7-1.1 3.7-4.4 1.7-5.6-.5-.3-1-1.5-1-2.5 0-3.1-1.9-3.3-2.6-.3zM421.7 588.7c-1.2.3-1.7 1.2-1.5 2.6.4 2.9 2.1 3.1 4.9.8 2-1.8 2.2-2.2.9-3.1-.8-.5-1.7-.9-2-.9-.3.1-1.3.3-2.3.6zM152.8 704.7c.7.3 1.6.2 1.9-.1.4-.3-.2-.6-1.3-.5-1.1 0-1.4.3-.6.6zM562.7 319.7c-.4.3-.7 1.6-.6 2.7 0 2.1.1 2.1.9.1.8-1.9.9-1.9.9.2.1 3 2.1 4 2.1 1 0-2.5-2.2-5.2-3.3-4zM635.7 356.7c-1.4 2.8-1.2 5.9.4 7.9.5.6.9 3.1 1 5.5 0 8.5.5 13.8 1.2 14.5.4.4.7 1.6.7 2.6 0 1.9 1.5 2.4 2.4.9.4-.5 0-1.1-.6-1.4-1-.3-.8-1 .5-2.5 1.6-1.7 1.9-3.9 2-12.9.1-7.7-.3-11.7-1.3-13.8-2-4-4.5-4.3-6.3-.8zM456 395c0 .5.5 1 1 1 .6 0 1-.5 1-1 0-.6-.4-1-1-1-.5 0-1 .4-1 1zM456 402.1c0 .5.5.7 1 .4.6-.3 1-.8 1-1.1 0-.2-.4-.4-1-.4-.5 0-1 .5-1 1.1zM616.7 406.7c-1.6 1.5.3 25.7 2.1 27.5 2.2 2.2 6.2-9.4 6.2-17.8 0-4.5-.4-5.7-2.7-7.9-2.8-2.5-4.4-3.1-5.6-1.8zM366.5 409c-.3.5-.1 1.8.4 2.7.9 1.6 1 1.4 1.1-1 0-2.8-.5-3.4-1.5-1.7zM456 410.1c0 .6-.5.9-1.2.7-1.8-.6-6.8 4.9-6.5 7.2.2 1 1.9 4.2 3.8 7.1 6.2 9.2 11.9 19 11.9 20.4 0 .8.5 1.7 1 2 .6.3 1 2.1 1 3.9 0 2.4.8 3.8 3.1 5.6 5.1 4 11.2 10.3 13.9 14.3 1.4 2 3.3 3.9 4.2 4.2 3.5 1.2 13.8 13.7 18.7 22.7 2.8 5.1 6.9 14.9 9.2 21.8 3.7 11.3 4.1 13.2 3.6 19.5-.7 8.5-1.2 12.1-2.7 17.7-1.8 6.4-1.4 27 .6 32.7.9 2.5 1.7 7.3 1.8 10.6.1 4.1.6 5.9 1.4 5.7.7-.1 1.2.9 1.2 2.2 0 3.2 1.7 4.2 2.5 1.6.4-1.1 1-1.8 1.4-1.6 1 .6 4.3-6.2 3.6-7.4-.3-.4.2-1.3 1-2 1.2-1 1.4-2.5.9-7.2-.5-4.2-.2-7 .9-10.1.9-2.3 1.8-6 2.2-8.2 1.3-9.1 1.9-11.1 3.7-12.9 1.1-1 1.7-2.5 1.3-3.3-.3-.9.2-2.4 1.1-3.5 1-1 1.5-2.1 1.2-2.3-.3-.3.1-3.4 1-6.8.8-3.4 1.6-8 1.7-10.2.2-2.2.6-4.7.9-5.5 1.2-2.9 1-14.5-.2-20.5-.7-3.3-1.3-7.1-1.2-8.4 0-1.4-.3-2.7-.7-3-1.3-1-6.3-11.5-6.3-13.2 0-.9-.7-1.9-1.5-2.3-.8-.3-1.5-1.1-1.5-1.8.1-2.3-5.5-12.7-6.7-12.8-.7 0-1.3-.9-1.3-2 0-3.2-2.4-8.2-5.2-10.9-1.4-1.4-2.4-3.1-2.1-3.8.3-.9-.6-1.8-2.6-2.6-1.7-.6-3.1-1.7-3.1-2.4 0-.8-1-1.7-2.2-2.2-1.3-.5-3.9-2.4-5.8-4.3-1.9-1.8-5.2-4.1-7.2-5.1s-4-2.6-4.3-3.7c-.5-1.5-1.2-1.9-2.9-1.4-2 .5-2.3.2-2.4-3-.1-2.3.3-3.5 1.1-3.3 2.2.4 1.9-4.4-.4-6.4-2.2-1.9-2.4-1.9-3.6-.3-.7 1-1.3 2.3-1.3 3 0 1.3-3.1 2.4-6.8 2.4-1.4 0-2.6-.8-3.2-2.3-.7-1.7-.9-1.8-.9-.5-.1 2.5-1.3 2.2-4.1-.7-1.3-1.4-2.8-2.5-3.5-2.5-.6 0-1.8-.9-2.8-2-1-1.2-2.2-1.8-2.7-1.5-.6.3-1-.1-1-.9 0-.9-.4-1.6-1-1.6-.5 0-1 .5-1 1.1zm30 14.5c0 .2-.9.4-2.1.4-1.1 0-1.8-.4-1.4-1 .5-.8 3.5-.3 3.5.6zM337.3 448.7c.9.2 2.5.2 3.5 0 .9-.3.1-.5-1.8-.5-1.9 0-2.7.2-1.7.5zM420.9 464.8c-3.4.4-6.4 3.6-5.5 5.8.5 1.4 1.5 1.5 6.1.9 3.4-.4 6.9-.2 9.1.5 4.5 1.5 10.5.5 9.7-1.6-1.2-3.3-12.2-6.4-19.4-5.6zM16.1 590.6c0 1.1.3 1.4.6.6.3-.7.2-1.6-.1-1.9-.3-.4-.6.2-.5 1.3zM18 594c-.6 1.1-.8 2-.6 2 .3 0 1-.9 1.6-2 .6-1.1.8-2 .6-2-.3 0-1 .9-1.6 2zM22 598c0 .5.5 1 1 1 .6 0 1-.5 1-1 0-.6-.4-1-1-1-.5 0-1 .4-1 1zM21 606c0 .5.7 1 1.5 1s1.5-.5 1.5-1c0-.6-.7-1-1.5-1s-1.5.4-1.5 1zM54 628.9c0 .6.5 1.3 1 1.6.6.3 1-.1 1-.9 0-.9-.4-1.6-1-1.6-.5 0-1 .4-1 .9zM468.1 637.6c0 1.1.3 1.4.6.6.3-.7.2-1.6-.1-1.9-.3-.4-.6.2-.5 1.3zM70.5 640c-.3.5-.1 1 .4 1 .6 0 1.1-.5 1.1-1 0-.6-.2-1-.4-1-.3 0-.8.4-1.1 1zM73.7 648c-2.2 2.6-2.3 9-.2 9 1.1 0 1.5-1.1 1.5-3.9 0-2.2.5-4.1 1.3-4.4.8-.3.9-.8.2-1.6-.8-.8-1.5-.5-2.8.9zM84.8 649.7c.7.3 1.6.2 1.9-.1.4-.3-.2-.6-1.3-.5-1.1 0-1.4.3-.6.6zM84.3 654.6c-.8 2.2.5 3 2.3 1.2 1.4-1.4 1.4-1.6-.1-2.1-.9-.4-1.8-.1-2.2.9zM89.4 657.4c-1 .8-1.7 1.7-1.4 1.9.3.3 1.6-.3 3-1.3 2.9-2.2 1.4-2.7-1.6-.6zM116 666c0 .5.4 1 .9 1 .6 0 1.3-.5 1.6-1 .3-.6-.1-1-.9-1-.9 0-1.6.4-1.6 1zM440 667.4c0 3.1.6 3.4 1.3.6.3-1.1.1-2.3-.4-2.6-.5-.3-.9.6-.9 2zM191.3 667.7c-.7.2-1.3 1.4-1.3 2.4 0 1.1.5 1.7 1 1.4.6-.3 1-.1 1 .4 0 .6.5 1.1 1 1.1.6 0 1-1.4 1-3 0-3-.4-3.3-2.7-2.3zM110 670.1c0 .5.5.7 1 .4.6-.3 1-.8 1-1.1 0-.2-.4-.4-1-.4-.5 0-1 .5-1 1.1zM113 673.4c0 .2.7.6 1.5 1 .8.3 1.5.1 1.5-.4 0-.6-.7-1-1.5-1s-1.5.2-1.5.4zM184.7 675.5c-.4.8-.2 1.7.3 2 .6.4 1-.3 1-1.4 0-2.5-.6-2.7-1.3-.6zM118.4 678.1c-.6 1.1 1.3 3.9 2.7 3.9.5 0 .9-.9.9-1.9 0-2.1-2.6-3.6-3.6-2zM167.3 682.1c1.4.8 2.2.8 3 0 .8-.8.3-1.1-1.8-1.1-2.6.1-2.8.2-1.2 1.1zM134.7 683.7c-1.6 1.5-.6 3.3 1.8 3.3 2.8 0 3.4-2.4.9-3.4-1.9-.7-1.9-.7-2.7.1zM169.6 685.9c-.3.5.1 1.4.9 2.1 1.2 1 1.5 1 1.5-.3 0-1.9-1.6-3.1-2.4-1.8zM140.8 690.2c.8.8 1.7.8 3.4 0 2.2-1 2.1-1.1-1.1-1.1-2.7-.1-3.2.2-2.3 1.1zM144 693.9c0 1.3 2.6 3.2 3.3 2.4 1.4-1.3.6-3.3-1.3-3.3-1.1 0-2 .4-2 .9zM423.1 724.6c0 1.1.3 1.4.6.6.3-.7.2-1.6-.1-1.9-.3-.4-.6.2-.5 1.3zM635.9 759.6c-.9 1.1-1.3 4.4-1.2 10.8.1 6.2-.3 9.8-1.2 11.2-1.2 1.8-2 5-2.8 10.4-.2.8-.6 2-1 2.7-1.8 2.8.4 4.3 6.3 4.3 3.3 0 6.2-.4 6.5-1 1.2-1.9 1.7-5.6 2.1-15 .2-5.2.5-11.3.7-13.5.3-3.4-.1-4.4-3.5-7.7-2.1-2.1-4-3.8-4.2-3.8-.2 0-1 .7-1.7 1.6zM618.5 766.2c-1.6.6-4.2 1.9-5.7 2.9-1.4 1.1-2.9 1.9-3.3 1.9-1 0-6.6 4.8-6.6 5.7 0 .4-.7 1.5-1.5 2.4-.8.9-1.1 1.9-.7 2.3.4.4-.3.9-1.5 1.3-1.2.3-2.2 1-2.2 1.5 0 .6-1.1.8-2.4.6-1.7-.4-2.3-.1-1.9.9.6 1.5-1.3 1.8-2.2.3-.3-.5-1.4-.1-2.5 1s-2.6 2-3.4 2c-1.3 0-2.7 2.1-3.1 4.5-.1 1.1-1 1.1-3.6 0-.9-.3-2.3.1-3.2.9-.9.9-2.2 1.6-2.9 1.6-.7.1-2.4.7-3.8 1.5-2.2 1.3 1.1 1.4 28.3 1.5 21.8 0 30.6-.3 30.2-1.1-.4-.6-.8-7.5-.9-15.4-.2-10-.7-14.9-1.6-15.9-1.4-1.8-1.4-1.8-5.5-.4zM665.3 792.9c-1.3 2.6-2.3 5.1-2.3 5.5 0 .3 11.8.5 26.2.4l26.1-.3.4-2.8c.4-2.7.3-2.7-5.4-2.9-11-.3-12.8-.4-19.3-1.2-3.6-.5-7.2-1.2-8-1.6-.8-.4-4.6-1-8.5-1.4l-7-.6-2.2 4.9zM747 796v3h39l-1.2-2.3c-.7-1.2-1.4-2.4-1.5-2.6-.2-.2-.9.2-1.8.9-1 .9-1.5.9-1.5.1 0-.7-.9-.9-2.5-.5-1.4.3-3.1.2-3.8-.4-.6-.5-6.9-1-13.9-1.1l-12.8-.2v3.1z"/></svg>